HIERARCHY
ROOT root
{
	OFFSET	0	13.1	24.9
	CHANNELS 6  Xposition Yposition Zposition Xrotation Yrotation Zrotation
	JOINT spine_1
	{
		OFFSET	0	9.99999	0
		CHANNELS 3  Xrotation Yrotation Zrotation
		JOINT spine_2
		{
			OFFSET	0	112	-10
			CHANNELS 3  Xrotation Yrotation Zrotation
			JOINT spine_3
			{
				OFFSET	0	206.5	19.3
				CHANNELS 3  Xrotation Yrotation Zrotation
				JOINT spine_4
				{
					OFFSET	0	110.4	14.6
					CHANNELS 3  Xrotation Yrotation Zrotation
					JOINT neck_1
					{
						OFFSET	0	71.8	-50.3
						CHANNELS 3  Xrotation Yrotation Zrotation
						JOINT neck_2
						{
							OFFSET	0	86.2	-25.8
							CHANNELS 3  Xrotation Yrotation Zrotation
							JOINT head_ee
							{
								OFFSET	0	179.8	-8.7
								CHANNELS 3  Xrotation Yrotation Zrotation
								End Site
								{
									OFFSET	1	0	0
								}
							}
						}
					}
					JOINT left_clavicle
					{
						OFFSET	-43.2	22.4	-70.8
						CHANNELS 3  Xrotation Yrotation Zrotation
						JOINT left_shoulder
						{
							OFFSET	-93.9	-5.79999	48.7
							CHANNELS 3  Xrotation Yrotation Zrotation
							JOINT left_elbow
							{
								OFFSET	-291.4	-30.8	15.2
								CHANNELS 3  Xrotation Yrotation Zrotation
								JOINT left_lowarm_twist
								{
									OFFSET	-110.7	-3.89999	13.6
									CHANNELS 3  Xrotation Yrotation Zrotation
									JOINT left_hand
									{
										OFFSET	-110.7	-3.89999	13.6
										CHANNELS 3  Xrotation Yrotation Zrotation
										JOINT left_ee
										{
											OFFSET	-80.8	-5.10001	12.1
											CHANNELS 3  Xrotation Yrotation Zrotation
											End Site
											{
												OFFSET	1	0	0
											}
										}
									}
								}
							}
						}
					}
					JOINT right_clavicle
					{
						OFFSET	43.2	22.4	-70.8
						CHANNELS 3  Xrotation Yrotation Zrotation
						JOINT right_shoulder
						{
							OFFSET	93.9	-5.79999	48.7
							CHANNELS 3  Xrotation Yrotation Zrotation
							JOINT right_elbow
							{
								OFFSET	291.4	-30.8	15.2
								CHANNELS 3  Xrotation Yrotation Zrotation
								JOINT right_lowarm_twist
								{
									OFFSET	110.7	-3.89999	13.6
									CHANNELS 3  Xrotation Yrotation Zrotation
									JOINT right_hand
									{
										OFFSET	110.7	-3.89999	13.6
										CHANNELS 3  Xrotation Yrotation Zrotation
										JOINT right_ee
										{
											OFFSET	80.8	-5.10001	12.1
											CHANNELS 3  Xrotation Yrotation Zrotation
											End Site
											{
												OFFSET	1	0	0
											}
										}
									}
								}
							}
						}
					}
				}
			}
		}
	}
	JOINT left_hip
	{
		OFFSET	-82.8	-127.5	0.300001
		CHANNELS 3  Xrotation Yrotation Zrotation
		JOINT left_knee
		{
			OFFSET	-28.2	-396.7	2.2
			CHANNELS 3  Xrotation Yrotation Zrotation
			JOINT left_ankle
			{
				OFFSET	-11.7	-411.3	35.4
				CHANNELS 3  Xrotation Yrotation Zrotation
				JOINT left_toes
				{
					OFFSET	0	-60	-88.6
					CHANNELS 3  Xrotation Yrotation Zrotation
					JOINT left_foot_ee
					{
						OFFSET	-22.5	-16.5	-42.2
						CHANNELS 3  Xrotation Yrotation Zrotation
						End Site
						{
							OFFSET	1	0	0
						}
					}
				}
			}
		}
	}
	JOINT right_hip
	{
		OFFSET	82.8	-127.5	0.300001
		CHANNELS 3  Xrotation Yrotation Zrotation
		JOINT right_knee
		{
			OFFSET	28.2	-396.7	2.2
			CHANNELS 3  Xrotation Yrotation Zrotation
			JOINT right_ankle
			{
				OFFSET	11.7	-411.3	35.4
				CHANNELS 3  Xrotation Yrotation Zrotation
				JOINT right_toes
				{
					OFFSET	0	-60	-88.6
					CHANNELS 3  Xrotation Yrotation Zrotation
					JOINT right_foot_ee
					{
						OFFSET	22.5	-16.5	-42.2
						CHANNELS 3  Xrotation Yrotation Zrotation
						End Site
						{
							OFFSET	1	0	0
						}
					}
				}
			}
		}
	}
}
MOTION
Frames: 15
Frame Time: 0.02
2971.2 699.304 -674.212 -179.552 -77.5865 -173.28 0.0768038 -0.338193 -3.83335 0.0849724 -0.0937657 -3.84708 0.094919 0.711593 -3.78195 0.0749788 0.105835 -3.84676 0.994008 13.9915 5.06829 1.34505 20.6117 6.75714 -0.0 0.0 -0.0 9.05958 20.4923 15.8893 -14.1551 -31.8233 57.0187 3.31008 -58.6091 1.85823 -69.2606 -6.4517 5.29501 -1.2653 2.18571 -7.49836 -0.0 0.0 -0.0 3.20063 -3.13078 -6.35846 -22.833 24.7222 -61.0819 0.470219 13.1125 -0.0540425 -6.36787 0.267409 -0.768442 3.25103 -30.2711 -30.6465 0.0 0.0 0.0 -11.7118 12.8845 -4.53598 -8.46395 0.254855 1.27278 37.256 -11.0597 -4.80535 25.0597 -0.0 -0.0 -0.0 0.0 -0.0 29.5272 16.2716 -9.29384 -6.92457 -0.22255 -1.03877 -6.66503 9.09201 -1.03791 -4.82751 0.0 0.0 0.0 0.0 0.0 
2992.33 707.273 -669.619 178.888 -77.3164 -175.188 0.109288 -0.341056 -3.79106 0.117277 -0.099308 -3.80505 0.127388 0.695239 -3.7424 0.10786 0.095918 -3.80514 -0.185961 13.4364 5.40964 0.103895 19.6144 7.20336 -0.0 0.0 -0.0 8.74193 20.8801 15.3404 -17.5747 -31.5162 56.8058 3.16362 -57.4458 1.73398 -71.1843 -6.69724 5.31132 -1.07136 1.16526 -6.65569 -0.0 0.0 -0.0 3.46631 -3.10025 -6.85557 -23.0691 27.0741 -59.9299 0.524792 14.5726 -0.0671002 -6.36106 0.267077 -0.767636 3.30741 -30.2959 -31.0119 0.0 0.0 0.0 -10.4528 13.5612 -5.25782 -14.4483 0.32045 2.18826 34.6563 -10.5019 -4.54213 26.1361 -0.0 -0.0 -0.0 0.0 -0.0 27.5705 15.875 -8.90297 -7.81719 -0.242048 -1.17436 -5.73625 11.2106 -0.903002 -4.26463 0.0 0.0 0.0 0.0 0.0 
3010.4 712.42 -662.219 178.131 -76.9357 -176.195 0.336755 -0.325303 -3.61971 0.344038 -0.094467 -3.63305 0.352807 0.65 -3.57576 0.334976 0.0775075 -3.63345 -0.0107758 13.4775 5.7407 0.283978 19.3748 7.54431 -0.0 0.0 -0.0 8.48339 22.0974 14.7807 -19.8989 -31.0414 56.6777 2.89081 -55.0622 1.50709 -72.1919 -6.82599 5.31654 -0.823146 0.812655 -5.14925 -0.0 0.0 -0.0 3.74392 -2.68627 -7.35769 -22.6571 28.1858 -59.4551 0.552618 15.3098 -0.0742747 -6.17292 0.25796 -0.745373 3.35467 -30.5059 -31.3419 0.0 0.0 0.0 -8.51162 13.2186 -6.40627 -19.5692 0.300515 2.97344 34.2719 -9.71324 -4.48654 27.0102 -0.0 -0.0 -0.0 0.0 -0.0 26.1969 15.4861 -9.11897 -8.57129 -0.256873 -1.28913 -3.87849 8.30323 -0.598093 -2.80549 0.0 0.0 0.0 0.0 0.0 
3028.05 713.177 -664.716 177.458 -76.1961 -177.678 0.474048 -0.312852 -3.42638 0.480574 -0.0943206 -3.43933 0.488504 0.602436 -3.38753 0.472497 0.0602095 -3.44009 -2.97777 13.1245 7.00866 -2.75004 18.4271 9.14129 -0.0 0.0 -0.0 8.2233 23.1344 14.2559 -21.5145 -30.5225 57.5578 2.71528 -53.3613 1.36469 -72.5975 -6.87783 5.318 -0.926605 2.71285 -5.00423 -0.0 0.0 -0.0 3.55059 -1.81918 -6.9469 -22.4474 29.4178 -59.097 0.605486 16.6962 -0.0888509 -6.12771 0.25578 -0.740018 3.43947 -30.4122 -31.881 0.0 0.0 0.0 -6.65986 14.7167 -5.69183 -26.0706 0.174406 3.96259 31.1642 -9.54338 -4.16272 29.2263 -0.0 -0.0 -0.0 0.0 -0.0 22.1788 14.8326 -7.87025 -4.04075 -0.145152 -0.603017 -1.77466 10.7718 -0.276214 -3.76033 0.0 0.0 0.0 0.0 0.0 
3045.91 715.612 -658.03 174.708 -76.2822 179.391 0.499496 -0.27945 -3.38448 0.505866 -0.0636468 -3.39539 0.511764 0.622277 -3.33855 0.496223 0.0875232 -3.39485 -3.88881 13.0254 7.69359 -3.66659 17.9339 9.92509 -0.0 0.0 -0.0 7.84363 24.0637 13.5867 -22.9385 -29.6682 58.1372 2.56217 -51.7575 1.24311 -73.1413 -6.94733 5.31938 -0.939573 4.07302 -4.49006 -0.0 0.0 -0.0 3.53363 -1.80684 -6.91395 -22.1591 30.4658 -59.3851 0.646216 17.7508 -0.100912 -6.12623 0.255709 -0.739843 3.48894 -30.236 -32.1845 0.0 0.0 0.0 -4.73203 15.6975 -7.81139 -31.6837 -0.0240965 4.80082 28.7553 -9.4423 -3.8984 30.2704 -0.0 -0.0 -0.0 0.0 -0.0 18.909 14.4815 -7.40034 -1.22929 -0.0486611 -0.182372 -0.842117 12.8146 -0.1325 -4.26456 0.0 0.0 0.0 0.0 0.0 
3061.25 720.913 -653.352 174.39 -76.3121 178.884 0.593881 -0.27917 -3.34991 0.600121 -0.065564 -3.36087 0.605902 0.607986 -3.30613 0.590659 0.0785211 -3.36059 -5.18558 12.8279 8.94531 -4.94865 16.939 11.292 -0.0 0.0 -0.0 7.47863 22.9499 13.1893 -25.0027 -29.4002 58.5783 2.26416 -48.2737 1.01466 -73.4293 -6.98416 5.31984 -1.00606 5.20191 -4.42905 -0.0 0.0 -0.0 3.68722 -1.32454 -7.18142 -20.9928 31.5228 -60.1358 0.682517 18.6804 -0.112259 -5.89731 0.244736 -0.712705 3.53096 -30.1641 -32.4527 0.0 0.0 0.0 -3.94654 14.9955 -8.82471 -34.3745 -0.148188 5.19499 26.6886 -8.98041 -3.65563 30.851 -0.0 -0.0 -0.0 0.0 -0.0 16.8883 14.4483 -7.04002 1.04977 0.0446497 0.154902 -0.918894 16.1558 -0.148222 -4.66297 0.0 0.0 0.0 0.0 0.0 
3076.36 720.403 -646.377 172.905 -76.4724 177.485 0.617963 -0.229977 -3.27006 0.623911 -0.0215418 -3.27806 0.626892 0.63341 -3.21642 0.612476 0.117772 -3.27602 -7.76483 12.0808 7.97736 -7.62926 16.8859 10.4686 -0.0 0.0 -0.0 7.24606 23.8773 12.7549 -26.0524 -27.7199 58.8899 2.21612 -47.6629 0.978978 -72.7606 -6.89868 5.31849 -0.784847 5.63672 -2.78513 -0.0 0.0 -0.0 3.91921 0.363402 -7.54091 -20.3421 32.2368 -60.0996 0.689342 18.854 -0.114455 -5.88385 0.244094 -0.711108 3.61072 -30.1902 -32.9826 0.0 0.0 0.0 -3.37229 12.7147 -9.72507 -37.7058 -0.327303 5.67442 22.6727 -5.28353 -3.12633 31.716 -0.0 -0.0 -0.0 0.0 -0.0 13.6225 14.5054 -7.06599 4.1233 0.191625 0.603488 0.573566 16.4349 0.0923554 -4.35936 0.0 0.0 0.0 0.0 0.0 
3092.68 724.763 -634.432 168.526 -77.0323 174.213 0.668757 -0.343703 -3.17085 0.674339 -0.141342 -3.18628 0.683932 0.494345 -3.1509 0.670079 -0.00922249 -3.18939 -8.91791 11.9204 7.80428 -8.819 16.9632 10.4061 -0.0 0.0 -0.0 6.97045 23.5355 12.3959 -26.602 -26.1118 58.6422 1.90616 -43.3532 0.757711 -73.0145 -6.93114 5.31912 -0.952615 8.03067 -2.82862 -0.0 0.0 -0.0 3.94608 2.90999 -7.45437 -17.8558 32.5621 -62.4533 0.673656 18.4544 -0.109438 -6.20496 0.259508 -0.749166 3.61354 -30.4809 -33.0306 0.0 0.0 0.0 -2.7459 11.0987 -12.3861 -40.2619 -0.483516 6.03491 18.3167 -3.89312 -2.5683 32.4793 -0.0 -0.0 -0.0 0.0 -0.0 10.6551 14.7383 -8.20731 6.42881 0.317592 0.934568 -0.907175 18.7632 -0.1496 -3.26797 0.0 0.0 0.0 0.0 0.0 
3103.16 729.479 -626.088 167.817 -76.7875 173.926 0.664552 -0.361644 -2.90209 0.66922 -0.176323 -2.91921 0.679718 0.407105 -2.89607 0.668019 -0.0551815 -2.924 -10.1124 11.5999 7.30023 -10.066 16.9545 9.9989 -0.0 0.0 -0.0 6.86156 23.2263 12.2687 -26.7003 -25.1607 58.9824 1.66845 -39.5705 0.600231 -73.1026 -6.94239 5.31931 -1.03307 9.64387 -2.63435 -0.0 0.0 -0.0 4.59719 4.99793 -8.64411 -16.2686 32.7511 -63.0133 0.675497 18.5014 -0.110021 -6.00178 0.24973 -0.725094 3.695 -30.631 -33.5856 0.0 0.0 0.0 -1.68058 9.27327 -13.459 -41.2743 -0.549819 6.17573 14.191 -1.3266 -2.01041 32.8222 -0.0 -0.0 -0.0 0.0 -0.0 8.91196 14.2799 -9.54266 7.83011 0.400648 1.13328 -0.972129 19.8411 -0.161934 -2.5413 0.0 0.0 0.0 0.0 0.0 
3113.1 731.923 -616.871 165.226 -76.989 172.059 0.609897 -0.429701 -2.71587 0.613964 -0.256078 -2.73769 0.62769 0.295233 -2.73375 0.617289 -0.140048 -2.74607 -11.0654 11.2227 6.59201 -11.072 16.8958 9.35409 -0.0 0.0 -0.0 7.13383 22.9698 12.6861 -27.5762 -23.6978 58.1084 1.37312 -34.2218 0.42273 -72.8594 -6.91131 5.31875 -1.10957 11.0704 -2.48933 -0.0 0.0 -0.0 4.77245 6.60238 -8.91398 -14.5621 32.9624 -64.1028 0.669913 18.3588 -0.108256 -6.34606 0.266348 -0.765862 3.66663 -30.6055 -33.3946 0.0 0.0 0.0 -1.4025 8.57861 -15.8531 -42.4978 -0.633272 6.34436 9.38217 -0.226384 -1.35004 32.9617 -0.0 -0.0 -0.0 0.0 -0.0 7.52073 14.2888 -10.7268 8.50107 0.442137 1.22771 -1.32993 21.1266 -0.224512 -2.03056 0.0 0.0 0.0 0.0 0.0 
3120.49 734.457 -610.621 163.18 -76.8172 170.472 0.523511 -0.461104 -2.58307 0.527175 -0.295859 -2.60716 0.542129 0.234052 -2.61343 0.532645 -0.181482 -2.6176 -11.5977 10.9967 6.04812 -11.6392 16.9162 8.84993 -0.0 0.0 -0.0 7.39727 22.8493 13.0815 -28.0037 -22.727 57.5983 1.17133 -30.1231 0.315216 -72.6668 -6.88669 5.31822 -1.15761 12.0635 -2.35077 -0.0 0.0 -0.0 5.05965 7.78443 -9.43921 -12.9415 33.1887 -64.6629 0.684257 18.7247 -0.112817 -6.57844 0.277703 -0.793323 3.63725 -30.4895 -33.1886 0.0 0.0 0.0 -0.936643 7.94192 -17.2003 -43.361 -0.69432 6.46226 6.16879 0.621678 -0.89546 33.0947 -0.0 -0.0 -0.0 0.0 -0.0 6.5153 14.3118 -11.9089 8.7394 0.457141 1.26113 -1.51096 22.0927 -0.257699 -1.67302 0.0 0.0 0.0 0.0 0.0 
3129.41 737.47 -607.284 164.202 -75.4578 171.758 0.472585 -0.293861 -2.54101 0.476168 -0.131629 -2.55455 0.483358 0.387108 -2.52849 0.474437 -0.0169428 -2.55788 -8.42383 11.881 4.57952 -8.43194 19.0435 7.1915 -0.0 0.0 -0.0 7.45129 22.7346 13.1726 -28.0254 -22.4505 57.7644 0.940862 -24.9887 0.208491 -71.562 -6.74549 5.31354 -1.36213 13.4922 -2.99354 -0.0 0.0 -0.0 5.50816 8.62177 -10.3233 -11.5585 33.3399 -64.9343 0.658415 18.0643 -0.104663 -8.9061 0.397566 -1.0658 3.00851 -30.1256 -29.086 0.0 0.0 0.0 1.41717 8.80835 -18.5688 -44.8394 -0.80299 6.66205 4.84323 -0.248862 -0.707438 32.2631 -0.0 -0.0 -0.0 0.0 -0.0 5.54332 14.2709 -12.4714 9.14793 0.483184 1.31829 -2.41237 19.436 -0.401801 -3.04825 0.0 0.0 0.0 0.0 0.0 
3140.48 739.066 -601.967 163.405 -73.6313 170.949 0.272543 -0.077636 -2.2112 0.275261 0.0631905 -2.21166 0.273778 0.5166 -2.15143 0.267359 0.170425 -2.20599 -8.70918 11.8881 4.033 -8.74333 19.4842 6.70498 -0.0 0.0 -0.0 6.55556 22.6258 11.8785 -28.2686 -22.4923 59.1061 0.837909 -22.542 0.166992 -70.7913 -6.64705 5.30866 -1.39111 13.0997 -3.35473 -0.0 0.0 -0.0 5.96658 9.51978 -11.2341 -10.5918 32.6298 -64.6785 0.758068 20.5824 -0.137646 -9.12507 0.409412 -1.09118 2.76542 -29.5757 -27.4801 0.0 0.0 0.0 4.5405 10.2821 -19.9611 -46.5774 -0.937317 6.8933 4.21681 1.3428 -0.61479 30.5249 -0.0 -0.0 -0.0 0.0 -0.0 4.59768 14.8259 -13.1024 7.85478 0.402153 1.13676 0.739311 21.3704 0.124399 -2.03618 0.0 0.0 0.0 0.0 0.0 
3146.9 741.962 -597.694 163.931 -72.9822 171.807 0.13757 0.0811888 -2.05694 0.139899 0.211885 -2.04761 0.133065 0.633252 -1.95876 0.12785 0.316024 -2.03415 -6.72388 11.9251 3.17523 -6.69646 19.85 5.55347 -0.0 0.0 -0.0 7.28621 22.7379 12.931 -28.9807 -21.1493 57.3352 0.658426 -18.0646 0.104666 -70.1048 -6.5594 5.30319 -1.58065 15.2011 -3.5676 -0.0 0.0 -0.0 6.37954 10.136 -12.0715 -8.69856 33.8206 -65.5945 0.676612 18.5299 -0.110376 -9.87491 0.450708 -1.17775 2.71417 -29.9134 -27.2191 0.0 0.0 0.0 5.8281 9.36717 -20.4568 -46.4178 -0.92469 6.87223 3.47038 1.11534 -0.507306 29.8364 -0.0 -0.0 -0.0 0.0 -0.0 4.14084 15.8569 -13.6656 8.29114 0.429036 1.19821 -0.471258 22.2137 -0.0802514 -1.99034 0.0 0.0 0.0 0.0 0.0 
3157.38 743.763 -598.086 162.221 -72.7276 170.437 -0.152079 -0.0726122 -1.93436 -0.149999 0.0505998 -1.93506 -0.150756 0.461296 -1.87997 -0.155653 0.158659 -1.92921 -6.75027 11.9289 2.74641 -6.72907 20.1713 5.13178 -0.0 0.0 -0.0 7.18183 23.1456 12.7381 -29.5497 -20.8447 58.0105 0.588545 -16.2541 0.0840465 -69.7057 -6.50847 5.29952 -1.57384 15.6777 -3.30342 -0.0 0.0 -0.0 6.65076 10.6924 -12.6179 -6.88793 33.7832 -65.3794 0.749827 20.3771 -0.134762 -10.4086 0.480794 -1.23904 2.48998 -29.6647 -25.8015 0.0 0.0 0.0 7.86806 9.3541 -21.0935 -46.8843 -0.961771 6.93372 3.07384 1.13471 -0.449824 29.3342 -0.0 -0.0 -0.0 0.0 -0.0 3.66036 16.0861 -13.9621 7.36153 0.372333 1.06706 -0.281103 22.0123 -0.0477452 -2.19768 0.0 0.0 0.0 0.0 0.0 
